<?xml version="1.0" encoding="utf-8"?>
<!-- Generator: Adobe Illustrator 26.0.1, SVG Export Plug-In . SVG Version: 6.00 Build 0)  -->
<svg version="1.1" id="Layer_1" xmlns="http://www.w3.org/2000/svg" xmlns:xlink="http://www.w3.org/1999/xlink" x="0px" y="0px"
	 viewBox="0 0 80 232" style="enable-background:new 0 0 80 232;" xml:space="preserve">
<style type="text/css">
	.st0{fill:#FFFFFF;}
</style>
<g>
	<path class="st0" d="M79.41,125.06c-0.19-0.11-0.97-0.2-1.74-0.2c-0.77,0-1.74,0.8-2.15,1.77s-1.1,2.15-1.53,2.61
		s-2.91,0.85-4.01,0.85h-2.4c-1.1,0-2.31,0.84-2.7,1.87l-4.28,11.52c-0.38,1.03-1.6,1.87-2.7,1.87h-6.44c-1.1,0-2,0.9-2,2v6.5
		c0,1.1,0.9,2,2,2h2.54c1.1,0,1.69,0.84,1.3,1.87l-5.15,13.87c-0.38,1.03-0.7,2.77-0.7,3.87v10.17c0,1.1,0,2,0.01,2
		c0,0,0.01,0.9,0.01,2v15.11c0,1.1,0.31,1.16,0.7,0.13l28.72-77.37C79.29,126.48,79.59,125.17,79.41,125.06z"/>
</g>
<path class="st0" d="M76.65,115.44H47.72H32.36H3.39c-0.85,0-1.44,0.74-1.14,1.43l4.67,10.99c0.18,0.42,0.63,0.69,1.14,0.69h23.09
	c0.67,0,1.22,0.48,1.22,1.06v12.29v72.04c0,0.06,0.01,0.13,0.02,0.19v0.05l7.2,16.96c0.17,0.4,0.81,0.4,0.98,0l7.18-16.9v-26.6
	l-0.02,0.04v-45.78v-12.29c0-0.59,0.54-1.06,1.22-1.06h23.04c0.51,0,0.96-0.28,1.14-0.69l4.67-10.99
	C78.08,116.18,77.5,115.44,76.65,115.44z"/>
<g>
	<path class="st0" d="M30.6,175.99c0-1.1-0.31-2.84-0.7-3.87l-5.34-14.38c-0.38-1.03,0.2-1.87,1.3-1.87h2.73c1.1,0,2-0.9,2-2v-6.5
		c0-1.1-0.9-2-2-2h-6.63c-1.1,0-2.31-0.84-2.7-1.88L15,131.97c-0.38-1.03-1.6-1.87-2.7-1.87h-2.25c-1.1,0-2.53-0.15-3.18-0.34
		s-1.95-2.15-2.36-3.12s-1.39-1.77-2.17-1.77s-1.57,0.09-1.75,0.2s0.11,1.42,0.5,2.45l28.81,77.62c0.38,1.03,0.7,0.97,0.7-0.13
		V175.99z"/>
</g>
</svg>
