<?xml version="1.0" encoding="utf-8"?>
<!-- Generator: Adobe Illustrator 26.0.1, SVG Export Plug-In . SVG Version: 6.00 Build 0)  -->
<svg version="1.1" id="Layer_1" xmlns="http://www.w3.org/2000/svg" xmlns:xlink="http://www.w3.org/1999/xlink" x="0px" y="0px"
	 viewBox="0 0 500 70" style="enable-background:new 0 0 500 70;" xml:space="preserve">
<style type="text/css">
	.st0{fill:#FFFFFF;}
</style>
<g>
	<path class="st0" d="M159.37,53.21V53.2c-9.96-0.27-17.96-8.43-17.96-18.46s8-18.19,17.96-18.46v-0.01h32.99V2.11h-32.99v0
		c-18.11,0.1-32.76,14.81-32.76,32.95S141.26,67.9,159.37,68v0h32.99V53.21H159.37z"/>
	<g>
		<path class="st0" d="M198.64,2.54h16.57v65.17h-16.57V2.54z M214.72,31.17h0.86l21.9-28.63h17.79l-22.85,29.49h-3.88l-13.82,17.88
			V31.17z M217.61,36.95l12.06-10.61l26.92,41.37h-19.51L217.61,36.95z"/>
		<path class="st0" d="M276.77,15.86H258.8V2.54h52.48v13.32h-17.93v51.85h-16.57V15.86z"/>
		<path class="st0" d="M318.27,2.54h44.67v13.32h-28.09v12.87h26.42V41.2h-26.42v13.19h28.09v13.32h-44.67V2.54z"/>
	</g>
	<g>
		<path class="st0" d="M0.46,2.57h16.57v25.61H43V2.57h16.57v65.17H43V41.5H17.04v26.24H0.46V2.57z"/>
		<path class="st0" d="M87.76,2.57h15.26v14.18h-5.28l-14.5,50.99H65.81L87.76,2.57z M82.34,41.5h31.16l3.7,11.97H78.64L82.34,41.5z
			 M98.06,16.75V2.57h10.03l21.95,65.17H112.6L98.06,16.75z"/>
	</g>
	<g>
		<path class="st0" d="M441.34,1.46h16.57v25.61h25.97V1.46h16.57v65.17h-16.57V40.39h-25.97v26.24h-16.57V1.46z"/>
	</g>
	<path class="st0" d="M401.72,52.46v-0.01c-9.96-0.27-17.96-8.43-17.96-18.46s8-18.19,17.96-18.46v-0.01h32.99V1.36h-32.99v0
		c-18.11,0.1-32.76,14.81-32.76,32.95s14.65,32.84,32.76,32.95v0h32.99V52.46H401.72z"/>
</g>
</svg>
