<?xml version="1.0" encoding="utf-8"?>
<!-- Generator: Adobe Illustrator 26.0.1, SVG Export Plug-In . SVG Version: 6.00 Build 0)  -->
<svg version="1.1" id="Layer_1" xmlns="http://www.w3.org/2000/svg" xmlns:xlink="http://www.w3.org/1999/xlink" x="0px" y="0px"
	 viewBox="0 0 80 232" style="enable-background:new 0 0 80 232;" xml:space="preserve">
<style type="text/css">
	.st0{fill:#FFFFFF;}
</style>
<g>
	<path class="st0" d="M79.41,125.06c-0.19-0.11-0.97-0.2-1.74-0.2c-0.77,0-1.74,0.8-2.15,1.77s-1.1,2.15-1.53,2.61
		s-2.91,0.85-4.01,0.85h-2.4c-1.1,0-2.31,0.84-2.7,1.87l-4.28,11.52c-0.38,1.03-1.6,1.87-2.7,1.87h-6.44c-1.1,0-2,0.9-2,2v6.5
		c0,1.1,0.9,2,2,2h2.54c1.1,0,1.69,0.84,1.3,1.87l-5.15,13.87c-0.38,1.03-0.7,2.77-0.7,3.87v10.17c0,1.1,0,2,0.01,2
		c0,0,0.01,0.9,0.01,2v15.11c0,1.1,0.31,1.16,0.7,0.13l28.72-77.37C79.29,126.48,79.59,125.17,79.41,125.06z"/>
</g>
<path class="st0" d="M76.65,115.44H47.72H32.36H3.39c-0.85,0-1.44,0.74-1.14,1.43l4.67,10.99c0.18,0.42,0.63,0.69,1.14,0.69h23.09
	c0.67,0,1.22,0.48,1.22,1.06v12.29v72.04c0,0.06,0.01,0.13,0.02,0.19v0.05l7.2,16.96c0.17,0.4,0.81,0.4,0.98,0l7.18-16.9v-26.6
	l-0.02,0.04v-45.78v-12.29c0-0.59,0.54-1.06,1.22-1.06h23.04c0.51,0,0.96-0.28,1.14-0.69l4.67-10.99
	C78.08,116.18,77.5,115.44,76.65,115.44z"/>
<g>
	<path class="st0" d="M55.87,79.4c0-0.42,0.09-0.82,0.23-1.18l-16.42-13.9c-1.05,1.23-2.61,2.01-4.36,2.01
		c-1.39,0-2.66-0.49-3.65-1.31l-10,10c0.97,1,1.56,2.36,1.56,3.86c0,0.07-0.01,0.14-0.01,0.21H38.2c0.19-1.16,1.19-2.06,2.41-2.06
		c1.35,0,2.44,1.09,2.44,2.44c0,0.7-0.3,1.33-0.78,1.78l4.27,7.4c0.77-0.42,1.65-0.65,2.58-0.65c1.03,0,2,0.3,2.82,0.8l5.21-6.85
		C56.38,81.36,55.87,80.44,55.87,79.4z"/>
	<path class="st0" d="M71.43,63.68c-11.21-14.46-4.49-25.9-4.49-25.9l-5.84,5.09c-2.86,2.83-4.62,5.78-5.63,8.64
		c-3.26,9.2,1.19,17.4,1.19,17.4s-10.56-5.33-5.14-17.28c0.2-0.44,0.39-0.88,0.57-1.31c4.76-11.35,3.6-20.47,3.6-20.47
		c-1.95-17.87-17.37-28.4-17.37-28.4c3.06,4.14,3.61,20.35,3.2,27.57c-0.27,4.69-7.71,14.67-12.88,21.07
		c-2.78,3.45-4.91,5.86-4.91,5.86c0.25-1.5,0.37-2.93,0.36-4.29c-0.05-14.19-13-20.52-13-20.52s4.31,19.88-1.25,27.1
		c-5.56,7.22-6.11,18.82-6.11,18.82l0.11,0.02c-0.07,0.79-0.11,1.6-0.11,2.41c0,17.09,16.24,30.95,36.27,30.95
		c20.03,0,36.27-13.85,36.27-30.95c0-0.15,0-0.3-0.01-0.45C76.82,74.81,75.95,69.51,71.43,63.68z M59.04,82.57
		c-0.49,0-0.94-0.12-1.35-0.31l-5.23,6.88c1.27,0.99,2.09,2.53,2.09,4.27c0,2.99-2.43,5.42-5.42,5.42s-5.42-2.43-5.42-5.42
		c0-1.84,0.92-3.46,2.31-4.44l-4.25-7.37c-0.35,0.19-0.74,0.31-1.17,0.31c-0.41,0-0.79-0.11-1.12-0.29l-9.27,9.27
		c0.58,0.7,0.94,1.59,0.94,2.58c0,2.23-1.77,4.03-3.96,4.03c-2.19,0-3.96-1.8-3.96-4.03c0-2.23,1.77-4.03,3.96-4.03
		c1,0,1.9,0.39,2.6,1.01l9.18-9.18c-0.44-0.4-0.73-0.95-0.78-1.58H23.17c-0.4,2.67-2.7,4.73-5.48,4.73c-3.07,0-5.55-2.48-5.55-5.55
		c0-3.07,2.48-5.55,5.55-5.55c1.35,0,2.58,0.48,3.54,1.28l10-10c-1.02-1.04-1.65-2.46-1.65-4.02c0-3.17,2.57-5.75,5.75-5.75
		s5.75,2.57,5.75,5.75c0,1.21-0.38,2.33-1.01,3.26L56.4,77.66c0.57-0.86,1.54-1.43,2.65-1.43c1.75,0,3.17,1.42,3.17,3.17
		C62.21,81.15,60.79,82.57,59.04,82.57z"/>
</g>
<g>
	<path class="st0" d="M30.6,175.99c0-1.1-0.31-2.84-0.7-3.87l-5.34-14.38c-0.38-1.03,0.2-1.87,1.3-1.87h2.73c1.1,0,2-0.9,2-2v-6.5
		c0-1.1-0.9-2-2-2h-6.63c-1.1,0-2.31-0.84-2.7-1.88L15,131.97c-0.38-1.03-1.6-1.87-2.7-1.87h-2.25c-1.1,0-2.53-0.15-3.18-0.34
		s-1.95-2.15-2.36-3.12s-1.39-1.77-2.17-1.77s-1.57,0.09-1.75,0.2s0.11,1.42,0.5,2.45l28.81,77.62c0.38,1.03,0.7,0.97,0.7-0.13
		V175.99z"/>
</g>
</svg>
